<?xml version="1.0" encoding="utf-8"?>
<!-- Generator: Adobe Illustrator 16.0.0, SVG Export Plug-In . SVG Version: 6.00 Build 0)  -->
<!DOCTYPE svg PUBLIC "-//W3C//DTD SVG 1.1//EN" "http://www.w3.org/Graphics/SVG/1.1/DTD/svg11.dtd">
<svg version="1.1" id="Calque_1" xmlns="http://www.w3.org/2000/svg" xmlns:xlink="http://www.w3.org/1999/xlink" x="0px" y="0px"
	 width="200px" height="45px" viewBox="0 0 200 45" enable-background="new 0 0 200 45" xml:space="preserve">
<g>
	<g>
		<g id="FOUND_1_">
			<path d="M167.245,31.524h4.421v0.489h-3.878v3.687h3.607v0.489h-3.607v4.565h-0.543V31.524z"/>
			<path d="M178.169,36.139c0,4.047-1.668,4.771-2.974,4.771c-1.771,0-2.986-1.189-2.986-4.771c0-3.581,1.293-4.77,2.986-4.77
				C177.032,31.37,178.169,32.558,178.169,36.139z M172.752,36.139c0,2.534,0.516,4.331,2.443,4.331
				c1.694,0,2.431-1.395,2.431-4.331c0-2.496-0.555-4.331-2.431-4.331C173.386,31.808,172.752,33.604,172.752,36.139z"/>
			<path d="M179.875,38.311c0,1.295,0.581,2.16,2.017,2.16c1.332,0,2.017-0.865,2.017-2.16v-6.786h0.543v6.684
				c0,2.08-1.279,2.702-2.56,2.702c-1.279,0-2.559-0.492-2.559-2.702v-6.684h0.542V38.311z"/>
			<path d="M186.545,31.524l4.021,8.376h0.027v-8.376h0.542v9.231h-0.71l-4.034-8.378h-0.027v8.378h-0.542v-9.231H186.545z"/>
			<path d="M192.622,31.524h2.107c1.952,0,3.323,0.826,3.323,4.615c0,3.789-1.576,4.616-3.323,4.616h-2.107V31.524z M194.729,40.315
				c1.964,0,2.78-1.344,2.78-4.176c0-2.831-0.66-4.176-2.78-4.176h-1.564v8.352H194.729z"/>
		</g>
		<g id="_x34_04_1_">
			<g id="_x34__3_">
				<path fill="#FFFFFF" d="M149.998,16.725h-9.243v-1.215l9.115-15.317h1.344v15.444h2.781v1.089h-2.781v6.107h-1.215V16.725z
					 M149.998,2.27h-0.064l-7.964,13.366h8.028V2.27z"/>
			</g>
			<path id="_x30__1_" fill="#FFFFFF" d="M169.979,1.134c6.106,0,11.075,4.969,11.075,11.076c0,6.105-4.969,11.075-11.075,11.075
				c-6.108,0-11.076-4.969-11.076-11.075C158.903,6.103,163.87,1.134,169.979,1.134 M169.979,0c-6.744,0-12.21,5.467-12.21,12.21
				c0,6.744,5.467,12.208,12.21,12.208c6.742,0,12.209-5.465,12.209-12.208C182.188,5.467,176.721,0,169.979,0L169.979,0z"/>
			<g id="_x34__2_">
				<path fill="#FFFFFF" d="M194.526,16.725h-9.243v-1.215l9.115-15.317h1.344v15.444h2.781v1.089h-2.781v6.107h-1.215V16.725z
					 M194.526,2.27h-0.064l-7.964,13.366h8.028V2.27z"/>
			</g>
		</g>
		<g id="CODE_1_">
			<path fill="#FFFFFF" d="M146.33,34.173c0-1.24-0.661-2.365-2.018-2.365c-1.836,0-2.444,1.721-2.444,4.319
				c0,2.481,0.505,4.343,2.367,4.343c1.785,0,2.211-2.094,2.211-2.818h0.542c0,1.087-0.542,3.259-2.844,3.259
				c-2.004,0-2.818-1.772-2.818-4.759c0-2.896,0.813-4.782,2.96-4.782c2.16,0,2.585,1.898,2.585,2.804H146.33z"/>
			<path fill="#FFFFFF" d="M153.749,36.139c0,4.047-1.667,4.771-2.973,4.771c-1.771,0-2.986-1.189-2.986-4.771
				c0-3.581,1.292-4.77,2.986-4.77C152.612,31.37,153.749,32.558,153.749,36.139z M148.332,36.139c0,2.534,0.518,4.331,2.444,4.331
				c1.693,0,2.432-1.395,2.432-4.331c0-2.496-0.557-4.331-2.432-4.331C148.966,31.808,148.332,33.604,148.332,36.139z"/>
			<path fill="#FFFFFF" d="M155.029,31.524h2.107c1.952,0,3.323,0.826,3.323,4.615c0,3.789-1.578,4.616-3.323,4.616h-2.107V31.524z
				 M157.136,40.315c1.964,0,2.78-1.344,2.78-4.176c0-2.831-0.66-4.176-2.78-4.176h-1.565v8.352H157.136z"/>
			<path fill="#FFFFFF" d="M161.737,31.524h4.41v0.489h-3.865v3.687h3.606v0.489h-3.606v4.074h3.981v0.491h-4.526V31.524z"/>
		</g>
		<g id="LIGNE_1_">
			<rect x="140.91" y="44.518" fill="#FFFFFF" width="59.09" height="0.171"/>
		</g>
	</g>
	<g>
		<path fill="#FFFFFF" d="M0,1.207h13.677c6.276,0,11.369,2.781,11.369,10.243c0,5.15-2.014,8.289-6.217,9.592v0.118
			c4.619,0.83,7.579,3.613,7.579,10.777c0,7.045-5.092,11.545-13.026,11.545H0V1.207z M12.079,19.029
			c4.085,0,6.217-2.724,6.217-6.69c0-5.034-3.02-6.04-6.809-6.04H6.75v12.73H12.079z M13.44,38.39c4.026,0,6.217-2.606,6.217-7.461
			c0-4.558-2.724-7.164-6.631-7.164H6.75V38.39H13.44z"/>
		<path fill="#FFFFFF" d="M35.456,1.207h6.749v36.592h16.342v5.683H35.456V1.207z"/>
		<path fill="#FFFFFF" d="M65.936,22.344c0-15.099,4.263-21.967,13.973-21.967c9.711,0,13.974,6.868,13.974,21.967
			c0,15.098-4.263,21.967-13.974,21.967C70.199,44.312,65.936,37.442,65.936,22.344z M87.133,22.167
			c0-14.21-3.198-16.698-7.224-16.698c-4.027,0-7.223,2.488-7.223,16.698c0,14.565,3.196,17.053,7.223,17.053
			C83.936,39.22,87.133,36.732,87.133,22.167z"/>
		<path fill="#FFFFFF" d="M125.193,38.567h-0.119c-1.835,3.907-4.263,5.744-9.235,5.744c-9.237,0-12.553-6.87-12.553-21.967
			c0-15.099,4.262-21.967,14.031-21.967c10.6,0,12.375,8.35,12.375,12.198v0.769h-6.395v-1.005c0-3.138-1.303-6.87-5.92-6.87
			c-4.797,0-7.342,3.197-7.342,16.698c0,13.617,2.249,17.053,6.809,17.053c5.15,0.059,7.047-3.672,7.047-12.908h-7.106v-5.094
			h13.501v22.263h-5.093V38.567z"/>
	</g>
</g>
</svg>
