<?xml version="1.0" encoding="utf-8"?>
<!-- Generator: Adobe Illustrator 16.0.0, SVG Export Plug-In . SVG Version: 6.00 Build 0)  -->
<!DOCTYPE svg PUBLIC "-//W3C//DTD SVG 1.1//EN" "http://www.w3.org/Graphics/SVG/1.1/DTD/svg11.dtd">
<svg version="1.1" id="LOGO_404" xmlns="http://www.w3.org/2000/svg" xmlns:xlink="http://www.w3.org/1999/xlink" x="0px" y="0px"
	 width="330px" height="248.922px" viewBox="0 0 330 248.922" enable-background="new 0 0 330 248.922" xml:space="preserve">
<g id="FOUND">
	<path fill="#D31039" d="M147.55,175.592h24.629v2.737h-21.605v20.524h20.093v2.737h-20.093v25.422h-3.024V175.592z"/>
	<path fill="#D31039" d="M208.4,201.302c0,22.542-9.29,26.573-16.563,26.573c-9.866,0-16.636-6.625-16.636-26.573
		c0-19.949,7.202-26.574,16.636-26.574C202.063,174.728,208.4,181.353,208.4,201.302z M178.225,201.302
		c0,14.115,2.881,24.126,13.611,24.126c9.434,0,13.539-7.778,13.539-24.126c0-13.899-3.097-24.125-13.539-24.125
		C181.754,177.177,178.225,187.187,178.225,201.302z"/>
	<path fill="#D31039" d="M217.901,213.401c0,7.202,3.241,12.027,11.235,12.027c7.417,0,11.234-4.825,11.234-12.027v-37.809h3.025
		v37.233c0,11.594-7.13,15.051-14.259,15.051c-7.13,0-14.259-2.736-14.259-15.051v-37.233h3.024V213.401z"/>
	<path fill="#D31039" d="M255.057,175.592l22.397,46.667h0.144v-46.667h3.025v51.42h-3.961l-22.469-46.667h-0.145v46.667h-3.025
		v-51.42H255.057z"/>
	<path fill="#D31039" d="M288.901,175.592h11.738c10.875,0,18.509,4.609,18.509,25.71c0,21.101-8.787,25.71-18.509,25.71h-11.738
		V175.592z M300.639,224.563c10.947,0,15.483-7.489,15.483-23.261c0-15.772-3.672-23.262-15.483-23.262h-8.714v46.522H300.639z"/>
</g>
<g id="_x34_04">
	<g id="_x34_">
		<path fill="#FFFFFF" d="M51.48,93.156H0v-6.769L50.768,1.062h7.482V87.1h15.498v6.056H58.25v34.024H51.48V93.156z M51.48,12.641
			h-0.356L6.769,87.1H51.48V12.641z"/>
	</g>
	<path id="_x30_" fill="#FFFFFF" d="M162.772,6.316c34.017,0,61.691,27.675,61.691,61.691s-27.675,61.691-61.691,61.691
		s-61.691-27.674-61.691-61.691S128.755,6.316,162.772,6.316 M162.772,0c-37.559,0-68.007,30.448-68.007,68.008
		c0,37.559,30.448,68.007,68.007,68.007c37.56,0,68.008-30.448,68.008-68.007C230.78,30.448,200.332,0,162.772,0L162.772,0z"/>
	<g id="_x34__1_">
		<path fill="#FFFFFF" d="M299.508,93.156h-51.481v-6.769l50.768-85.326h7.482V87.1h15.498v6.056h-15.498v34.024h-6.769V93.156z
			 M299.508,12.641h-0.357L254.796,87.1h44.712V12.641z"/>
	</g>
</g>
<g id="CODE">
	<path fill="#FFFFFF" d="M31.045,190.355c0-6.913-3.673-13.178-11.235-13.178c-10.227,0-13.611,9.578-13.611,24.053
		c0,13.828,2.809,24.198,13.179,24.198c9.938,0,12.315-11.667,12.315-15.7h3.024c0,6.05-3.024,18.147-15.844,18.147
		c-11.162,0-15.7-9.865-15.7-26.502c0-16.131,4.538-26.646,16.492-26.646c12.027,0,14.403,10.586,14.403,15.627H31.045z"/>
	<path fill="#FFFFFF" d="M72.378,201.302c0,22.542-9.29,26.573-16.564,26.573c-9.866,0-16.636-6.625-16.636-26.573
		c0-19.949,7.202-26.574,16.636-26.574C66.041,174.728,72.378,181.353,72.378,201.302z M42.203,201.302
		c0,14.115,2.881,24.126,13.611,24.126c9.434,0,13.54-7.778,13.54-24.126c0-13.899-3.098-24.125-13.54-24.125
		C45.732,177.177,42.203,187.187,42.203,201.302z"/>
	<path fill="#FFFFFF" d="M79.503,175.592h11.738c10.875,0,18.508,4.609,18.508,25.71c0,21.101-8.786,25.71-18.508,25.71H79.503
		V175.592z M91.241,224.563c10.947,0,15.483-7.489,15.483-23.261c0-15.772-3.672-23.262-15.483-23.262h-8.714v46.522H91.241z"/>
	<path fill="#FFFFFF" d="M116.875,175.592h24.558v2.737h-21.533v20.524h20.092v2.737h-20.092v22.686h22.181v2.736h-25.206V175.592z"
		/>
</g>
<g id="LIGNE">
	<rect x="0.859" y="247.975" fill="#FFFFFF" width="329.141" height="0.947"/>
</g>
</svg>
